<svg width="140" height="64" viewBox="0 0 140 64" fill="none" xmlns="http://www.w3.org/2000/svg">
    <path d="M10.9785 47.2246L8.1543 55H7L10.252 46.4688H10.9961L10.9785 47.2246ZM13.3457 55L10.5156 47.2246L10.498 46.4688H11.2422L14.5059 55H13.3457ZM13.1992 51.8418V52.7676H8.40625V51.8418H13.1992Z" fill="#040B1D"/>
    <path d="M19.4805 53.7695V46H20.5703V55H19.5742L19.4805 53.7695ZM15.2148 51.9004V51.7773C15.2148 51.293 15.2734 50.8535 15.3906 50.459C15.5117 50.0605 15.6816 49.7188 15.9004 49.4336C16.123 49.1484 16.3867 48.9297 16.6914 48.7773C17 48.6211 17.3438 48.543 17.7227 48.543C18.1211 48.543 18.4688 48.6133 18.7656 48.7539C19.0664 48.8906 19.3203 49.0918 19.5273 49.3574C19.7383 49.6191 19.9043 49.9355 20.0254 50.3066C20.1465 50.6777 20.2305 51.0977 20.2773 51.5664V52.1055C20.2344 52.5703 20.1504 52.9883 20.0254 53.3594C19.9043 53.7305 19.7383 54.0469 19.5273 54.3086C19.3203 54.5703 19.0664 54.7715 18.7656 54.9121C18.4648 55.0488 18.1133 55.1172 17.7109 55.1172C17.3398 55.1172 17 55.0371 16.6914 54.877C16.3867 54.7168 16.123 54.4922 15.9004 54.2031C15.6816 53.9141 15.5117 53.5742 15.3906 53.1836C15.2734 52.7891 15.2148 52.3613 15.2148 51.9004ZM16.3047 51.7773V51.9004C16.3047 52.2168 16.3359 52.5137 16.3984 52.791C16.4648 53.0684 16.5664 53.3125 16.7031 53.5234C16.8398 53.7344 17.0137 53.9004 17.2246 54.0215C17.4355 54.1387 17.6875 54.1973 17.9805 54.1973C18.3398 54.1973 18.6348 54.1211 18.8652 53.9688C19.0996 53.8164 19.2871 53.6152 19.4277 53.3652C19.5684 53.1152 19.6777 52.8438 19.7559 52.5508V51.1387C19.709 50.9238 19.6406 50.7168 19.5508 50.5176C19.4648 50.3145 19.3516 50.1348 19.2109 49.9785C19.0742 49.8184 18.9043 49.6914 18.7012 49.5977C18.502 49.5039 18.2656 49.457 17.9922 49.457C17.6953 49.457 17.4395 49.5195 17.2246 49.6445C17.0137 49.7656 16.8398 49.9336 16.7031 50.1484C16.5664 50.3594 16.4648 50.6055 16.3984 50.8867C16.3359 51.1641 16.3047 51.4609 16.3047 51.7773Z" fill="#040B1D"/>
    <path d="M23.3359 49.9199V55H22.2461V48.6602H23.2773L23.3359 49.9199ZM23.1133 51.5898L22.6094 51.5723C22.6133 51.1387 22.6699 50.7383 22.7793 50.3711C22.8887 50 23.0508 49.6777 23.2656 49.4043C23.4805 49.1309 23.748 48.9199 24.0684 48.7715C24.3887 48.6191 24.7598 48.543 25.1816 48.543C25.4785 48.543 25.752 48.5859 26.002 48.6719C26.252 48.7539 26.4688 48.8848 26.6523 49.0645C26.8359 49.2441 26.9785 49.4746 27.0801 49.7559C27.1816 50.0371 27.2324 50.377 27.2324 50.7754V55H26.1484V50.8281C26.1484 50.4961 26.0918 50.2305 25.9785 50.0312C25.8691 49.832 25.7129 49.6875 25.5098 49.5977C25.3066 49.5039 25.0684 49.457 24.7949 49.457C24.4746 49.457 24.207 49.5137 23.9922 49.627C23.7773 49.7402 23.6055 49.8965 23.4766 50.0957C23.3477 50.2949 23.2539 50.5234 23.1953 50.7812C23.1406 51.0352 23.1133 51.3047 23.1133 51.5898ZM27.2207 50.9922L26.4941 51.2148C26.498 50.8672 26.5547 50.5332 26.6641 50.2129C26.7773 49.8926 26.9395 49.6074 27.1504 49.3574C27.3652 49.1074 27.6289 48.9102 27.9414 48.7656C28.2539 48.6172 28.6113 48.543 29.0137 48.543C29.3535 48.543 29.6543 48.5879 29.916 48.6777C30.1816 48.7676 30.4043 48.9062 30.584 49.0938C30.7676 49.2773 30.9062 49.5137 31 49.8027C31.0938 50.0918 31.1406 50.4355 31.1406 50.834V55H30.0508V50.8223C30.0508 50.4668 29.9941 50.1914 29.8809 49.9961C29.7715 49.7969 29.6152 49.6582 29.4121 49.5801C29.2129 49.498 28.9746 49.457 28.6973 49.457C28.459 49.457 28.248 49.498 28.0645 49.5801C27.8809 49.6621 27.7266 49.7754 27.6016 49.9199C27.4766 50.0605 27.3809 50.2227 27.3145 50.4062C27.252 50.5898 27.2207 50.7852 27.2207 50.9922Z" fill="#040B1D"/>
    <path d="M33.959 48.6602V55H32.8691V48.6602H33.959ZM32.7871 46.9785C32.7871 46.8027 32.8398 46.6543 32.9453 46.5332C33.0547 46.4121 33.2148 46.3516 33.4258 46.3516C33.6328 46.3516 33.791 46.4121 33.9004 46.5332C34.0137 46.6543 34.0703 46.8027 34.0703 46.9785C34.0703 47.1465 34.0137 47.291 33.9004 47.4121C33.791 47.5293 33.6328 47.5879 33.4258 47.5879C33.2148 47.5879 33.0547 47.5293 32.9453 47.4121C32.8398 47.291 32.7871 47.1465 32.7871 46.9785Z" fill="#040B1D"/>
    <path d="M36.7832 50.0137V55H35.6992V48.6602H36.7246L36.7832 50.0137ZM36.5254 51.5898L36.0742 51.5723C36.0781 51.1387 36.1426 50.7383 36.2676 50.3711C36.3926 50 36.5684 49.6777 36.7949 49.4043C37.0215 49.1309 37.291 48.9199 37.6035 48.7715C37.9199 48.6191 38.2695 48.543 38.6523 48.543C38.9648 48.543 39.2461 48.5859 39.4961 48.6719C39.7461 48.7539 39.959 48.8867 40.1348 49.0703C40.3145 49.2539 40.4512 49.4922 40.5449 49.7852C40.6387 50.0742 40.6855 50.4277 40.6855 50.8457V55H39.5957V50.834C39.5957 50.502 39.5469 50.2363 39.4492 50.0371C39.3516 49.834 39.209 49.6875 39.0215 49.5977C38.834 49.5039 38.6035 49.457 38.3301 49.457C38.0605 49.457 37.8145 49.5137 37.5918 49.627C37.373 49.7402 37.1836 49.8965 37.0234 50.0957C36.8672 50.2949 36.7441 50.5234 36.6543 50.7812C36.5684 51.0352 36.5254 51.3047 36.5254 51.5898Z" fill="#040B1D"/>
    <path d="M46.3926 49.8789V57.4375H45.3027V48.6602H46.2988L46.3926 49.8789ZM50.6641 51.7773V51.9004C50.6641 52.3613 50.6094 52.7891 50.5 53.1836C50.3906 53.5742 50.2305 53.9141 50.0195 54.2031C49.8125 54.4922 49.5566 54.7168 49.252 54.877C48.9473 55.0371 48.5977 55.1172 48.2031 55.1172C47.8008 55.1172 47.4453 55.0508 47.1367 54.918C46.8281 54.7852 46.5664 54.5918 46.3516 54.3379C46.1367 54.084 45.9648 53.7793 45.8359 53.4238C45.7109 53.0684 45.625 52.668 45.5781 52.2227V51.5664C45.625 51.0977 45.7129 50.6777 45.8418 50.3066C45.9707 49.9355 46.1406 49.6191 46.3516 49.3574C46.5664 49.0918 46.8262 48.8906 47.1309 48.7539C47.4355 48.6133 47.7871 48.543 48.1855 48.543C48.584 48.543 48.9375 48.6211 49.2461 48.7773C49.5547 48.9297 49.8145 49.1484 50.0254 49.4336C50.2363 49.7188 50.3945 50.0605 50.5 50.459C50.6094 50.8535 50.6641 51.293 50.6641 51.7773ZM49.5742 51.9004V51.7773C49.5742 51.4609 49.541 51.1641 49.4746 50.8867C49.4082 50.6055 49.3047 50.3594 49.1641 50.1484C49.0273 49.9336 48.8516 49.7656 48.6367 49.6445C48.4219 49.5195 48.166 49.457 47.8691 49.457C47.5957 49.457 47.3574 49.5039 47.1543 49.5977C46.9551 49.6914 46.7852 49.8184 46.6445 49.9785C46.5039 50.1348 46.3887 50.3145 46.2988 50.5176C46.2129 50.7168 46.1484 50.9238 46.1055 51.1387V52.6562C46.1836 52.9297 46.293 53.1875 46.4336 53.4297C46.5742 53.668 46.7617 53.8613 46.9961 54.0098C47.2305 54.1543 47.5254 54.2266 47.8809 54.2266C48.1738 54.2266 48.4258 54.166 48.6367 54.0449C48.8516 53.9199 49.0273 53.75 49.1641 53.5352C49.3047 53.3203 49.4082 53.0742 49.4746 52.7969C49.541 52.5156 49.5742 52.2168 49.5742 51.9004Z" fill="#040B1D"/>
    <path d="M55.7852 53.916V50.6523C55.7852 50.4023 55.7344 50.1855 55.6328 50.002C55.5352 49.8145 55.3867 49.6699 55.1875 49.5684C54.9883 49.4668 54.7422 49.416 54.4492 49.416C54.1758 49.416 53.9355 49.4629 53.7285 49.5566C53.5254 49.6504 53.3652 49.7734 53.248 49.9258C53.1348 50.0781 53.0781 50.2422 53.0781 50.418H51.9941C51.9941 50.1914 52.0527 49.9668 52.1699 49.7441C52.2871 49.5215 52.4551 49.3203 52.6738 49.1406C52.8965 48.957 53.1621 48.8125 53.4707 48.707C53.7832 48.5977 54.1309 48.543 54.5137 48.543C54.9746 48.543 55.3809 48.6211 55.7324 48.7773C56.0879 48.9336 56.3652 49.1699 56.5645 49.4863C56.7676 49.7988 56.8691 50.1914 56.8691 50.6641V53.6172C56.8691 53.8281 56.8867 54.0527 56.9219 54.291C56.9609 54.5293 57.0176 54.7344 57.0918 54.9062V55H55.9609C55.9062 54.875 55.8633 54.709 55.832 54.502C55.8008 54.291 55.7852 54.0957 55.7852 53.916ZM55.9727 51.1562L55.9844 51.918H54.8887C54.5801 51.918 54.3047 51.9434 54.0625 51.9941C53.8203 52.041 53.6172 52.1133 53.4531 52.2109C53.2891 52.3086 53.1641 52.4316 53.0781 52.5801C52.9922 52.7246 52.9492 52.8945 52.9492 53.0898C52.9492 53.2891 52.9941 53.4707 53.084 53.6348C53.1738 53.7988 53.3086 53.9297 53.4883 54.0273C53.6719 54.1211 53.8965 54.168 54.1621 54.168C54.4941 54.168 54.7871 54.0977 55.041 53.957C55.2949 53.8164 55.4961 53.6445 55.6445 53.4414C55.7969 53.2383 55.8789 53.041 55.8906 52.8496L56.3535 53.3711C56.3262 53.5352 56.252 53.7168 56.1309 53.916C56.0098 54.1152 55.8477 54.3066 55.6445 54.4902C55.4453 54.6699 55.207 54.8203 54.9297 54.9414C54.6562 55.0586 54.3477 55.1172 54.0039 55.1172C53.5742 55.1172 53.1973 55.0332 52.873 54.8652C52.5527 54.6973 52.3027 54.4727 52.123 54.1914C51.9473 53.9062 51.8594 53.5879 51.8594 53.2363C51.8594 52.8965 51.9258 52.5977 52.0586 52.3398C52.1914 52.0781 52.3828 51.8613 52.6328 51.6895C52.8828 51.5137 53.1836 51.3809 53.5352 51.291C53.8867 51.2012 54.2793 51.1562 54.7129 51.1562H55.9727Z" fill="#040B1D"/>
    <path d="M59.6582 50.0137V55H58.5742V48.6602H59.5996L59.6582 50.0137ZM59.4004 51.5898L58.9492 51.5723C58.9531 51.1387 59.0176 50.7383 59.1426 50.3711C59.2676 50 59.4434 49.6777 59.6699 49.4043C59.8965 49.1309 60.166 48.9199 60.4785 48.7715C60.7949 48.6191 61.1445 48.543 61.5273 48.543C61.8398 48.543 62.1211 48.5859 62.3711 48.6719C62.6211 48.7539 62.834 48.8867 63.0098 49.0703C63.1895 49.2539 63.3262 49.4922 63.4199 49.7852C63.5137 50.0742 63.5605 50.4277 63.5605 50.8457V55H62.4707V50.834C62.4707 50.502 62.4219 50.2363 62.3242 50.0371C62.2266 49.834 62.084 49.6875 61.8965 49.5977C61.709 49.5039 61.4785 49.457 61.2051 49.457C60.9355 49.457 60.6895 49.5137 60.4668 49.627C60.248 49.7402 60.0586 49.8965 59.8984 50.0957C59.7422 50.2949 59.6191 50.5234 59.5293 50.7812C59.4434 51.0352 59.4004 51.3047 59.4004 51.5898Z" fill="#040B1D"/>
    <path d="M67.8379 55.1172C67.3965 55.1172 66.9961 55.043 66.6367 54.8945C66.2812 54.7422 65.9746 54.5293 65.7168 54.2559C65.4629 53.9824 65.2676 53.6582 65.1309 53.2832C64.9941 52.9082 64.9258 52.498 64.9258 52.0527V51.8066C64.9258 51.291 65.002 50.832 65.1543 50.4297C65.3066 50.0234 65.5137 49.6797 65.7754 49.3984C66.0371 49.1172 66.334 48.9043 66.666 48.7598C66.998 48.6152 67.3418 48.543 67.6973 48.543C68.1504 48.543 68.541 48.6211 68.8691 48.7773C69.2012 48.9336 69.4727 49.1523 69.6836 49.4336C69.8945 49.7109 70.0508 50.0391 70.1523 50.418C70.2539 50.793 70.3047 51.2031 70.3047 51.6484V52.1348H65.5703V51.25H69.2207V51.168C69.2051 50.8867 69.1465 50.6133 69.0449 50.3477C68.9473 50.082 68.791 49.8633 68.5762 49.6914C68.3613 49.5195 68.0684 49.4336 67.6973 49.4336C67.4512 49.4336 67.2246 49.4863 67.0176 49.5918C66.8105 49.6934 66.6328 49.8457 66.4844 50.0488C66.3359 50.252 66.2207 50.5 66.1387 50.793C66.0566 51.0859 66.0156 51.4238 66.0156 51.8066V52.0527C66.0156 52.3535 66.0566 52.6367 66.1387 52.9023C66.2246 53.1641 66.3477 53.3945 66.5078 53.5938C66.6719 53.793 66.8691 53.9492 67.0996 54.0625C67.334 54.1758 67.5996 54.2324 67.8965 54.2324C68.2793 54.2324 68.6035 54.1543 68.8691 53.998C69.1348 53.8418 69.3672 53.6328 69.5664 53.3711L70.2227 53.8926C70.0859 54.0996 69.9121 54.2969 69.7012 54.4844C69.4902 54.6719 69.2305 54.8242 68.9219 54.9414C68.6172 55.0586 68.2559 55.1172 67.8379 55.1172Z" fill="#040B1D"/>
    <path d="M72.748 46V55H71.6582V46H72.748Z" fill="#040B1D"/>
    <path fill-rule="evenodd" clip-rule="evenodd" d="M77.8037 39.9494C77.8037 40.4404 78.2494 40.8079 78.7176 40.6825C86.3351 38.6411 91.9545 31.5597 91.9545 23.1374C91.9545 13.1204 84.0055 5 74.2 5C64.3944 5 56.4454 13.1204 56.4454 23.1374C56.4454 31.7533 62.3262 38.966 70.2109 40.8153C70.6737 40.9238 71.1036 40.5582 71.1036 40.0765V35.7796C71.1036 35.4325 70.8749 35.1299 70.5493 35.0228C68.0522 34.2008 66.0325 32.7454 64.4903 30.6566C62.8471 28.4152 62.0255 25.8181 62.0255 22.8652C62.0255 18.9637 63.4604 15.7677 66.3302 13.2773C68.714 11.2138 71.4276 10.1821 74.471 10.1821C78.3939 10.1821 81.5588 11.6348 83.9658 14.5403C85.9098 16.8883 86.8819 19.5981 86.8819 22.6696C86.8819 25.6817 86.0198 28.3796 84.2956 30.7633C82.8494 32.7761 80.8699 34.1959 78.357 35.0226C78.0318 35.1296 77.8037 35.432 77.8037 35.7786V39.9494ZM77.5781 25.5962C77.5781 25.1686 77.2362 24.822 76.8145 24.822H72.1103C71.6885 24.822 71.3466 25.1686 71.3466 25.5962V25.8899C71.3466 26.5464 70.6125 26.8714 70.2459 26.3301C69.5911 25.3632 69.2637 24.2201 69.2637 22.9008C69.2637 21.3947 69.7787 20.0903 70.8085 18.9874C71.8384 17.8845 73.0593 17.3331 74.471 17.3331C75.8712 17.3331 77.0863 17.8845 78.1162 18.9874C79.1461 20.0903 79.661 21.3947 79.661 22.9008C79.661 24.18 79.3374 25.3071 78.6903 26.2823C78.3249 26.8329 77.5781 26.5105 77.5781 25.8469V25.5962Z" fill="#15ADFF"/>
    <path d="M7 16.288C7 15.8605 7.34189 15.5138 7.76364 15.5138H13.9616C14.3833 15.5138 14.7252 15.8605 14.7252 16.288V26.7112C14.7252 27.199 14.8312 27.5842 15.0432 27.867C15.2553 28.1427 15.5152 28.2806 15.823 28.2806C16.1376 28.2806 16.4522 28.1321 16.7668 27.8352C17.0883 27.5312 17.249 27.1566 17.249 26.7112V16.288C17.249 15.8605 17.5909 15.5138 18.0126 15.5138H24.3029C24.7246 15.5138 25.0665 15.8605 25.0665 16.288V27.0187C25.0665 28.7931 24.6254 30.3306 23.7431 31.6313C22.8676 32.932 21.7186 33.9146 20.296 34.5791C18.8802 35.2436 17.3892 35.5758 15.823 35.5758C14.7081 35.5758 13.6206 35.3955 12.5605 35.035C11.5004 34.6674 10.5497 34.1231 9.70844 33.4021C8.87402 32.674 8.21401 31.7727 7.72841 30.6982C7.2428 29.6237 7 28.3972 7 27.0187V16.288Z" fill="#040B1D"/>
    <path d="M27.6502 34.453C27.2284 34.453 26.8865 34.1064 26.8865 33.6788V22.068C26.8865 20.5058 27.3072 19.1697 28.1484 18.0599C28.9965 16.943 30.1148 16.1018 31.5032 15.5362C32.8916 14.9707 34.3621 14.6879 35.9147 14.6879C37.5014 14.6879 39.0095 14.9848 40.439 15.5786C41.8753 16.1654 43.0346 17.0455 43.9169 18.2189C44.806 19.3924 45.2506 20.7779 45.2506 22.3755V33.6788C45.2506 34.1064 44.9087 34.453 44.4869 34.453H37.8991C37.4774 34.453 37.1355 34.1064 37.1355 33.6788V22.8951C37.1355 22.471 37.0192 22.1564 36.7867 21.9514C36.561 21.7393 36.3011 21.6333 36.007 21.6333C35.6787 21.6333 35.3641 21.7605 35.0631 22.015C34.7622 22.2624 34.6117 22.5558 34.6117 22.8951V33.6788C34.6117 34.1064 34.2698 34.453 33.8481 34.453H27.6502Z" fill="#040B1D"/>
    <path d="M47.8239 34.453C47.4022 34.453 47.0603 34.1064 47.0603 33.6788V15.6848C47.0603 15.2572 47.4022 14.9106 47.8239 14.9106H54.3297C54.7514 14.9106 55.0933 15.2572 55.0933 15.6848V33.6788C55.0933 34.1064 54.7514 34.453 54.3297 34.453H47.8239Z" fill="#040B1D"/>
    <path d="M93.454 16.288C93.454 15.8605 93.7959 15.5138 94.2176 15.5138H100.416C100.837 15.5138 101.179 15.8605 101.179 16.288V26.7112C101.179 27.199 101.285 27.5842 101.497 27.867C101.709 28.1427 101.969 28.2806 102.277 28.2806C102.592 28.2806 102.906 28.1321 103.221 27.8352C103.542 27.5312 103.703 27.1566 103.703 26.7112V16.288C103.703 15.8605 104.045 15.5138 104.467 15.5138H110.757C111.179 15.5138 111.521 15.8605 111.521 16.288V27.0187C111.521 28.7931 111.079 30.3306 110.197 31.6313C109.322 32.932 108.173 33.9146 106.75 34.5791C105.334 35.2436 103.843 35.5758 102.277 35.5758C101.162 35.5758 100.075 35.3955 99.0145 35.035C97.9544 34.6674 97.0037 34.1231 96.1624 33.4021C95.328 32.674 94.668 31.7727 94.1824 30.6982C93.6968 29.6237 93.454 28.3972 93.454 27.0187V16.288Z" fill="#040B1D"/>
    <path d="M132.666 21.4391C132.818 21.7943 132.671 22.2052 132.337 22.3934L124.008 27.0913C123.643 27.2977 123.181 27.167 122.974 26.7982L121.748 24.6191C121.537 24.2432 121.671 23.7645 122.045 23.5567L124.39 22.2546C124.833 22.008 124.904 21.3912 124.42 21.2394C124.188 21.1665 123.936 21.13 123.669 21.13C122.823 21.13 121.977 21.5221 121.13 22.2761C120.955 22.4269 120.167 23.0301 119.934 23.6635C119.788 24.0255 119.817 24.3572 119.846 24.5684C119.875 24.8398 120.663 27.0416 121.335 27.8258C122.035 28.6401 122.823 29.0322 123.757 29.0322C125.113 29.0322 126.585 28.2615 128.112 26.7202C128.419 26.4101 128.917 26.3923 129.227 26.6994L132.468 29.9115C132.73 30.1713 132.776 30.5856 132.551 30.8797C131.931 31.6937 131.157 32.425 130.264 33.0738C129.155 33.858 127.988 34.4311 126.733 34.8534C125.478 35.2455 124.224 35.4566 122.969 35.4566C121.714 35.4566 120.547 35.2455 119.409 34.8534C118.27 34.4613 117.249 33.858 116.315 33.0135C115.381 32.1992 114.652 31.1435 114.068 29.8767C113.514 28.61 113.105 27.1622 113.018 25.5034C113.018 25.4129 113.018 25.3827 113.018 25.2319C113.018 25.0811 113.018 24.9906 113.018 24.9906C113.018 22.7888 113.514 20.8887 114.477 19.3203C115.44 17.7519 116.695 16.5455 118.183 15.7613C119.7 14.9771 121.218 14.5548 122.764 14.5548C127.402 14.5548 130.703 16.8496 132.666 21.4391Z" fill="#040B1D"/>
</svg>
