<svg width="1470" height="1620" viewBox="0 0 1470 1620" fill="none" xmlns="http://www.w3.org/2000/svg">
<g clip-path="url(#clip0_586_12)">
<path fill-rule="evenodd" clip-rule="evenodd" d="M735.006 0L126.926 847.908H693.23L929.963 518.338L991.854 604.986L817.012 847.908H1343.09L908.301 241.375L581.826 696.275H458.043L846.41 156.275L735.006 0ZM735.006 80.4584L216.668 801.49H668.473L928.416 437.88L1047.56 603.438L906.754 799.943H1251.8L908.301 320.287L606.582 742.693H368.301L789.161 156.275L735.006 80.4584Z" fill="white"/>
<path d="M0 1618.52H58.7966V1606.14H13.9255V1497.83H0V1618.52ZM72.7221 1618.52H86.6476V1497.83H72.7221V1618.52ZM146.991 1618.52H159.37L207.335 1497.83H193.41L153.181 1601.5L112.951 1497.83H99.0258L146.991 1618.52ZM221.261 1618.52H287.794V1606.14H233.639V1562.81H286.246V1550.44H233.639V1508.66H287.794V1496.28H221.261V1616.97V1618.52ZM454.9 1586.02C454.9 1586.02 439.427 1609.23 413.123 1609.23C385.272 1609.23 363.61 1587.57 363.61 1558.17C363.61 1528.77 385.272 1507.11 413.123 1507.11C436.332 1507.11 450.258 1522.58 454.9 1530.32H468.825C461.089 1514.85 442.521 1494.73 413.123 1494.73C377.536 1494.73 349.685 1522.58 349.685 1556.63C349.685 1590.67 377.536 1618.52 413.123 1618.52C439.427 1618.52 461.089 1603.04 468.825 1584.48H454.9V1586.02ZM481.203 1558.17C481.203 1592.21 509.054 1620.06 544.642 1620.06C580.229 1620.06 608.08 1593.76 608.08 1558.17C608.08 1522.58 580.229 1496.28 544.642 1496.28C509.054 1496.28 481.203 1522.58 481.203 1559.72V1558.17ZM495.129 1558.17C495.129 1530.32 516.791 1507.11 544.642 1507.11C572.493 1507.11 594.155 1530.32 594.155 1558.17C594.155 1586.02 574.04 1609.23 544.642 1609.23C515.244 1609.23 495.129 1587.57 495.129 1558.17ZM639.026 1497.83H625.1V1618.52H637.478V1516.4L708.653 1618.52H721.031V1497.83H708.653V1598.4L637.478 1497.83H639.026ZM741.146 1584.48C741.146 1607.69 758.166 1620.06 778.281 1620.06C801.49 1620.06 815.415 1604.59 815.415 1584.48C815.415 1562.81 796.848 1556.62 786.017 1551.98C767.45 1545.79 756.619 1542.7 756.619 1527.23C756.619 1514.85 765.903 1507.11 778.281 1507.11C793.754 1507.11 798.395 1519.49 799.943 1527.23H813.868C812.321 1504.02 795.301 1496.28 779.828 1496.28C761.261 1496.28 744.241 1508.66 744.241 1528.77C744.241 1551.98 765.903 1558.17 775.186 1561.27C789.112 1565.91 803.037 1569 803.037 1586.02C803.037 1599.95 792.206 1609.23 778.281 1609.23C770.544 1609.23 756.619 1604.59 753.524 1584.48H739.599H741.146ZM933.009 1584.48C933.009 1584.48 917.536 1607.69 891.232 1607.69C863.381 1607.69 841.719 1586.02 841.719 1556.63C841.719 1527.23 863.381 1505.56 891.232 1505.56C914.441 1505.56 928.367 1521.04 933.009 1528.77H946.934C939.198 1513.3 920.63 1493.19 891.232 1493.19C855.645 1493.19 827.794 1521.04 827.794 1555.08C827.794 1589.12 855.645 1616.97 891.232 1616.97C917.536 1616.97 939.198 1601.5 946.934 1582.93H933.009V1584.48ZM965.501 1616.97H979.427V1496.28H965.501V1616.97ZM997.994 1556.63C997.994 1590.67 1025.85 1618.52 1061.43 1618.52C1097.02 1618.52 1124.87 1592.21 1124.87 1556.63C1124.87 1521.04 1097.02 1494.73 1061.43 1494.73C1025.85 1494.73 997.994 1521.04 997.994 1558.17V1556.63ZM1011.92 1556.63C1011.92 1528.77 1033.58 1505.56 1061.43 1505.56C1089.28 1505.56 1110.95 1528.77 1110.95 1556.63C1110.95 1584.48 1090.83 1607.69 1061.43 1607.69C1032.03 1607.69 1011.92 1586.02 1011.92 1556.63ZM1141.89 1496.28V1572.1C1141.89 1586.02 1141.89 1598.4 1155.82 1609.23C1163.55 1615.42 1174.38 1618.52 1182.12 1618.52C1192.95 1618.52 1202.23 1615.42 1208.42 1609.23C1220.8 1599.95 1222.35 1586.02 1222.35 1572.1V1496.28H1208.42V1572.1C1208.42 1581.38 1208.42 1589.12 1202.23 1596.85C1197.59 1603.04 1189.86 1606.14 1182.12 1606.14C1174.38 1606.14 1165.1 1601.5 1160.46 1595.31C1154.27 1587.57 1154.27 1579.83 1154.27 1570.55V1494.73H1140.34L1141.89 1496.28ZM1239.37 1582.93C1239.37 1606.14 1256.39 1618.52 1276.5 1618.52C1299.71 1618.52 1313.64 1603.04 1313.64 1582.93C1313.64 1561.27 1295.07 1555.08 1284.24 1550.44C1265.67 1544.25 1254.84 1541.15 1254.84 1525.68C1254.84 1513.3 1264.13 1505.56 1276.5 1505.56C1291.98 1505.56 1296.62 1517.94 1298.17 1525.68H1312.09C1310.54 1502.47 1293.52 1494.73 1278.05 1494.73C1259.48 1494.73 1242.46 1507.11 1242.46 1527.23C1242.46 1550.44 1264.13 1556.62 1273.41 1559.72C1287.34 1564.36 1301.26 1567.46 1301.26 1584.48C1301.26 1598.4 1290.43 1607.69 1276.5 1607.69C1268.77 1607.69 1254.84 1603.04 1251.75 1582.93H1237.82H1239.37ZM1332.21 1616.97H1391V1604.59H1344.58V1496.28H1330.66V1616.97H1332.21ZM1417.31 1616.97H1431.23V1575.19L1469.91 1496.28H1455.99L1425.04 1561.27L1394.1 1496.28H1380.17L1418.85 1575.19V1616.97H1417.31Z" fill="white"/>
<path d="M0 1305.95C3.09456 1391.05 64.9857 1437.47 140.802 1437.47C224.355 1437.47 278.51 1380.22 278.51 1305.95C278.51 1223.94 211.977 1200.73 170.201 1183.71C102.12 1160.5 58.7966 1148.13 58.7966 1092.42C58.7966 1046.01 95.9312 1015.06 140.802 1015.06C199.599 1015.06 215.072 1058.38 219.713 1087.78H269.226C261.49 1002.68 198.052 971.736 142.35 971.736C74.2693 971.736 7.73639 1015.06 9.28367 1095.52C9.28367 1180.62 86.6476 1202.28 123.782 1213.11C176.39 1230.13 228.997 1244.06 228.997 1305.95C228.997 1355.46 185.673 1391.05 139.255 1391.05C111.404 1391.05 57.2493 1375.58 49.5129 1301.31H0L0 1305.95ZM669.971 1104.8H625.1V1172.88C609.627 1135.75 561.662 1095.52 492.034 1095.52C393.009 1095.52 323.381 1171.34 323.381 1267.27C323.381 1357.01 386.819 1439.01 492.034 1439.01C549.284 1439.01 598.797 1411.16 625.1 1363.2V1429.73H669.971V1104.8V1104.8ZM368.252 1267.27C368.252 1194.54 422.407 1137.3 498.223 1137.3C555.473 1137.3 598.797 1169.79 617.364 1214.66C625.1 1230.13 628.195 1248.7 628.195 1267.27C628.195 1284.29 625.1 1302.85 617.364 1318.33C600.344 1364.74 557.02 1397.24 499.771 1397.24C410.029 1397.24 369.799 1326.06 369.799 1267.27H368.252ZM1081.55 982.567H1036.68V1169.79C1022.75 1135.75 974.785 1095.52 903.61 1095.52C806.132 1095.52 736.504 1169.79 736.504 1265.72C736.504 1357.01 799.943 1437.47 903.61 1437.47C971.691 1437.47 1015.01 1404.97 1038.22 1361.65V1428.18H1081.55V981.02V982.567ZM781.375 1265.72C781.375 1193 837.077 1135.75 911.347 1135.75C946.934 1135.75 979.427 1149.67 1002.64 1172.88C1025.85 1196.09 1039.77 1227.04 1039.77 1264.17C1039.77 1299.76 1027.39 1333.8 1004.18 1357.01C980.974 1380.22 948.481 1395.69 911.347 1395.69C826.246 1395.69 781.375 1330.7 781.375 1265.72ZM1469.91 1103.25H1425.04V1287.38C1425.04 1355.46 1386.36 1395.69 1318.28 1395.69C1245.56 1395.69 1213.07 1349.27 1213.07 1279.64V1103.25H1169.74V1287.38C1169.74 1366.29 1205.33 1435.92 1307.45 1437.47C1364.7 1437.47 1409.57 1412.71 1428.14 1370.93V1428.18H1469.91V1103.25V1103.25Z" fill="white"/>
<path fill-rule="evenodd" clip-rule="evenodd" d="M388.621 1064.5V1019.63H606.787V1064.5H388.621Z" fill="white"/>
</g>
<defs>
<clipPath id="clip0_586_12">
<rect width="1469.91" height="1620" fill="white"/>
</clipPath>
</defs>
</svg>
