<svg width="126" height="53" viewBox="0 0 126 53" fill="none" xmlns="http://www.w3.org/2000/svg">
  <path d="M0.990234 50V41.4688H3.7793C4.70508 41.4688 5.40039 41.6602 5.86523 42.043C6.33398 42.4258 6.56836 42.9922 6.56836 43.7422C6.56836 44.1406 6.45508 44.4941 6.22852 44.8027C6.00195 45.1074 5.69336 45.3438 5.30273 45.5117C5.76367 45.6406 6.12695 45.8867 6.39258 46.25C6.66211 46.6094 6.79688 47.0391 6.79688 47.5391C6.79688 48.3047 6.54883 48.9062 6.05273 49.3438C5.55664 49.7812 4.85547 50 3.94922 50H0.990234ZM2.11523 46.0098V49.0801H3.97266C4.49609 49.0801 4.9082 48.9453 5.20898 48.6758C5.51367 48.4023 5.66602 48.0273 5.66602 47.5508C5.66602 46.5234 5.10742 46.0098 3.99023 46.0098H2.11523ZM2.11523 45.1074H3.81445C4.30664 45.1074 4.69922 44.9844 4.99219 44.7383C5.28906 44.4922 5.4375 44.1582 5.4375 43.7363C5.4375 43.2676 5.30078 42.9277 5.02734 42.7168C4.75391 42.502 4.33789 42.3945 3.7793 42.3945H2.11523V45.1074Z" fill="#040B1D"/>
  <path d="M9.47461 50H8.39062V41H9.47461V50Z" fill="#040B1D"/>
  <path d="M10.9277 46.7715C10.9277 46.1504 11.0488 45.5918 11.291 45.0957C11.5371 44.5996 11.877 44.2168 12.3105 43.9473C12.748 43.6777 13.2461 43.543 13.8047 43.543C14.668 43.543 15.3652 43.8418 15.8965 44.4395C16.4316 45.0371 16.6992 45.832 16.6992 46.8242V46.9004C16.6992 47.5176 16.5801 48.0723 16.3418 48.5645C16.1074 49.0527 15.7695 49.4336 15.3281 49.707C14.8906 49.9805 14.3867 50.1172 13.8164 50.1172C12.957 50.1172 12.2598 49.8184 11.7246 49.2207C11.1934 48.623 10.9277 47.832 10.9277 46.8477V46.7715ZM12.0176 46.9004C12.0176 47.6035 12.1797 48.168 12.5039 48.5938C12.832 49.0195 13.2695 49.2324 13.8164 49.2324C14.3672 49.2324 14.8047 49.0176 15.1289 48.5879C15.4531 48.1543 15.6152 47.5488 15.6152 46.7715C15.6152 46.0762 15.4492 45.5137 15.1172 45.084C14.7891 44.6504 14.3516 44.4336 13.8047 44.4336C13.2695 44.4336 12.8379 44.6465 12.5098 45.0723C12.1816 45.498 12.0176 46.1074 12.0176 46.9004Z" fill="#040B1D"/>
  <path d="M20.6016 49.2324C20.9883 49.2324 21.3262 49.1152 21.6152 48.8809C21.9043 48.6465 22.0645 48.3535 22.0957 48.002H23.1211C23.1016 48.3652 22.9766 48.7109 22.7461 49.0391C22.5156 49.3672 22.207 49.6289 21.8203 49.8242C21.4375 50.0195 21.0312 50.1172 20.6016 50.1172C19.7383 50.1172 19.0508 49.8301 18.5391 49.2559C18.0312 48.6777 17.7773 47.8887 17.7773 46.8887V46.707C17.7773 46.0898 17.8906 45.541 18.1172 45.0605C18.3438 44.5801 18.668 44.207 19.0898 43.9414C19.5156 43.6758 20.0176 43.543 20.5957 43.543C21.3066 43.543 21.8965 43.7559 22.3652 44.1816C22.8379 44.6074 23.0898 45.1602 23.1211 45.8398H22.0957C22.0645 45.4297 21.9082 45.0938 21.627 44.832C21.3496 44.5664 21.0059 44.4336 20.5957 44.4336C20.0449 44.4336 19.6172 44.6328 19.3125 45.0312C19.0117 45.4258 18.8613 45.998 18.8613 46.748V46.9531C18.8613 47.6836 19.0117 48.2461 19.3125 48.6406C19.6133 49.0352 20.043 49.2324 20.6016 49.2324Z" fill="#040B1D"/>
  <path d="M26.1094 47.0645L25.4297 47.7734V50H24.3457V41H25.4297V46.4434L26.0098 45.7461L27.9844 43.6602H29.3027L26.8359 46.3086L29.5898 50H28.3184L26.1094 47.0645Z" fill="#040B1D"/>
  <path d="M36.0293 50.1172C35.1699 50.1172 34.4707 49.8359 33.9316 49.2734C33.3926 48.707 33.123 47.9512 33.123 47.0059V46.8066C33.123 46.1777 33.2422 45.6172 33.4805 45.125C33.7227 44.6289 34.0586 44.2422 34.4883 43.9648C34.9219 43.6836 35.3906 43.543 35.8945 43.543C36.7188 43.543 37.3594 43.8145 37.8164 44.3574C38.2734 44.9004 38.502 45.6777 38.502 46.6895V47.1406H34.207C34.2227 47.7656 34.4043 48.2715 34.752 48.6582C35.1035 49.041 35.5488 49.2324 36.0879 49.2324C36.4707 49.2324 36.7949 49.1543 37.0605 48.998C37.3262 48.8418 37.5586 48.6348 37.7578 48.377L38.4199 48.8926C37.8887 49.709 37.0918 50.1172 36.0293 50.1172ZM35.8945 44.4336C35.457 44.4336 35.0898 44.5938 34.793 44.9141C34.4961 45.2305 34.3125 45.6758 34.2422 46.25H37.418V46.168C37.3867 45.6172 37.2383 45.1914 36.9727 44.8906C36.707 44.5859 36.3477 44.4336 35.8945 44.4336Z" fill="#040B1D"/>
  <path d="M41.8887 45.9746L43.2949 43.6602H44.5605L42.4863 46.7949L44.625 50H43.3711L41.9062 47.627L40.4414 50H39.1816L41.3203 46.7949L39.2461 43.6602H40.5L41.8887 45.9746Z" fill="#040B1D"/>
  <path d="M51.0703 46.9004C51.0703 47.8652 50.8496 48.6426 50.4082 49.2324C49.9668 49.8223 49.3691 50.1172 48.6152 50.1172C47.8457 50.1172 47.2402 49.873 46.7988 49.3848V52.4375H45.7148V43.6602H46.7051L46.7578 44.3633C47.1992 43.8164 47.8125 43.543 48.5977 43.543C49.3594 43.543 49.9609 43.8301 50.4023 44.4043C50.8477 44.9785 51.0703 45.7773 51.0703 46.8008V46.9004ZM49.9863 46.7773C49.9863 46.0625 49.834 45.498 49.5293 45.084C49.2246 44.6699 48.8066 44.4629 48.2754 44.4629C47.6191 44.4629 47.127 44.7539 46.7988 45.3359V48.3652C47.123 48.9434 47.6191 49.2324 48.2871 49.2324C48.8066 49.2324 49.2188 49.0273 49.5234 48.6172C49.832 48.2031 49.9863 47.5898 49.9863 46.7773Z" fill="#040B1D"/>
  <path d="M53.6309 50H52.5469V41H53.6309V50Z" fill="#040B1D"/>
  <path d="M55.084 46.7715C55.084 46.1504 55.2051 45.5918 55.4473 45.0957C55.6934 44.5996 56.0332 44.2168 56.4668 43.9473C56.9043 43.6777 57.4023 43.543 57.9609 43.543C58.8242 43.543 59.5215 43.8418 60.0527 44.4395C60.5879 45.0371 60.8555 45.832 60.8555 46.8242V46.9004C60.8555 47.5176 60.7363 48.0723 60.498 48.5645C60.2637 49.0527 59.9258 49.4336 59.4844 49.707C59.0469 49.9805 58.543 50.1172 57.9727 50.1172C57.1133 50.1172 56.416 49.8184 55.8809 49.2207C55.3496 48.623 55.084 47.832 55.084 46.8477V46.7715ZM56.1738 46.9004C56.1738 47.6035 56.3359 48.168 56.6602 48.5938C56.9883 49.0195 57.4258 49.2324 57.9727 49.2324C58.5234 49.2324 58.9609 49.0176 59.2852 48.5879C59.6094 48.1543 59.7715 47.5488 59.7715 46.7715C59.7715 46.0762 59.6055 45.5137 59.2734 45.084C58.9453 44.6504 58.5078 44.4336 57.9609 44.4336C57.4258 44.4336 56.9941 44.6465 56.666 45.0723C56.3379 45.498 56.1738 46.1074 56.1738 46.9004Z" fill="#040B1D"/>
  <path d="M65.2793 44.6328C65.1152 44.6055 64.9375 44.5918 64.7461 44.5918C64.0352 44.5918 63.5527 44.8945 63.2988 45.5V50H62.2148V43.6602H63.2695L63.2871 44.3926C63.6426 43.8262 64.1465 43.543 64.7988 43.543C65.0098 43.543 65.1699 43.5703 65.2793 43.625V44.6328Z" fill="#040B1D"/>
  <path d="M68.7949 50.1172C67.9355 50.1172 67.2363 49.8359 66.6973 49.2734C66.1582 48.707 65.8887 47.9512 65.8887 47.0059V46.8066C65.8887 46.1777 66.0078 45.6172 66.2461 45.125C66.4883 44.6289 66.8242 44.2422 67.2539 43.9648C67.6875 43.6836 68.1562 43.543 68.6602 43.543C69.4844 43.543 70.125 43.8145 70.582 44.3574C71.0391 44.9004 71.2676 45.6777 71.2676 46.6895V47.1406H66.9727C66.9883 47.7656 67.1699 48.2715 67.5176 48.6582C67.8691 49.041 68.3145 49.2324 68.8535 49.2324C69.2363 49.2324 69.5605 49.1543 69.8262 48.998C70.0918 48.8418 70.3242 48.6348 70.5234 48.377L71.1855 48.8926C70.6543 49.709 69.8574 50.1172 68.7949 50.1172ZM68.6602 44.4336C68.2227 44.4336 67.8555 44.5938 67.5586 44.9141C67.2617 45.2305 67.0781 45.6758 67.0078 46.25H70.1836V46.168C70.1523 45.6172 70.0039 45.1914 69.7383 44.8906C69.4727 44.5859 69.1133 44.4336 68.6602 44.4336Z" fill="#040B1D"/>
  <path d="M75.5918 44.6328C75.4277 44.6055 75.25 44.5918 75.0586 44.5918C74.3477 44.5918 73.8652 44.8945 73.6113 45.5V50H72.5273V43.6602H73.582L73.5996 44.3926C73.9551 43.8262 74.459 43.543 75.1113 43.543C75.3223 43.543 75.4824 43.5703 75.5918 43.625V44.6328Z" fill="#040B1D"/>
  <path fill-rule="evenodd" clip-rule="evenodd" d="M70.8039 34.9494C70.8039 35.4404 71.2496 35.8079 71.7177 35.6825C79.3353 33.6411 84.9546 26.5597 84.9546 18.1374C84.9546 8.1204 77.0057 0 67.2001 0C57.3945 0 49.4456 8.1204 49.4456 18.1374C49.4456 26.7533 55.3263 33.966 63.211 35.8153C63.6739 35.9238 64.1038 35.5582 64.1038 35.0765V30.7796C64.1038 30.4325 63.875 30.1299 63.5494 30.0228C61.0523 29.2008 59.0327 27.7454 57.4904 25.6566C55.8472 23.4152 55.0256 20.8181 55.0256 17.8652C55.0256 13.9637 56.4605 10.7677 59.3304 8.2773C61.7142 6.21385 64.4278 5.18212 67.4712 5.18212C71.394 5.18212 74.5589 6.63484 76.9659 9.54028C78.91 11.8883 79.882 14.5981 79.882 17.6696C79.882 20.6817 79.0199 23.3796 77.2957 25.7633C75.8496 27.7761 73.87 29.1959 71.3571 30.0226C71.0319 30.1296 70.8039 30.432 70.8039 30.7786V34.9494ZM70.5782 20.5962C70.5782 20.1686 70.2363 19.822 69.8146 19.822H65.1104C64.6887 19.822 64.3468 20.1686 64.3468 20.5962V20.8899C64.3468 21.5464 63.6126 21.8714 63.2461 21.3301C62.5912 20.3632 62.2638 19.2201 62.2638 17.9008C62.2638 16.3947 62.7788 15.0903 63.8087 13.9874C64.8386 12.8845 66.0594 12.3331 67.4712 12.3331C68.8714 12.3331 70.0864 12.8845 71.1163 13.9874C72.1462 15.0903 72.6611 16.3947 72.6611 17.9008C72.6611 19.18 72.3376 20.3071 71.6904 21.2823C71.325 21.8329 70.5782 21.5105 70.5782 20.8469V20.5962Z" fill="#15ADFF"/>
  <path d="M0 11.2881C0 10.8605 0.341892 10.5139 0.763636 10.5139H6.96158C7.38332 10.5139 7.72521 10.8605 7.72521 11.2881V21.7113C7.72521 22.199 7.83122 22.5843 8.04325 22.867C8.25527 23.1427 8.51517 23.2806 8.82295 23.2806C9.13757 23.2806 9.45219 23.1321 9.7668 22.8352C10.0883 22.5313 10.249 22.1566 10.249 21.7113V11.2881C10.249 10.8605 10.5909 10.5139 11.0126 10.5139H17.3029C17.7246 10.5139 18.0665 10.8605 18.0665 11.2881V22.0188C18.0665 23.7931 17.6254 25.3306 16.7431 26.6313C15.8676 27.932 14.7186 28.9146 13.296 29.5791C11.8802 30.2436 10.3892 30.5758 8.82295 30.5758C7.70811 30.5758 6.62063 30.3956 5.56051 30.0351C4.50039 29.6675 3.5497 29.1232 2.70844 28.4021C1.87402 27.674 1.21401 26.7727 0.728407 25.6982C0.242802 24.6237 0 23.3972 0 22.0188V11.2881Z" fill="#040B1D"/>
  <path d="M20.6502 29.453C20.2284 29.453 19.8865 29.1064 19.8865 28.6788V17.0681C19.8865 15.5058 20.3072 14.1698 21.1484 13.0599C21.9965 11.943 23.1148 11.1018 24.5032 10.5363C25.8916 9.97074 27.3621 9.68797 28.9147 9.68797C30.5014 9.68797 32.0095 9.98487 33.439 10.5787C34.8753 11.1654 36.0346 12.0455 36.9169 13.219C37.806 14.3924 38.2506 15.778 38.2506 17.3756V28.6788C38.2506 29.1064 37.9087 29.453 37.4869 29.453H30.8991C30.4774 29.453 30.1355 29.1064 30.1355 28.6788V17.8951C30.1355 17.471 30.0192 17.1564 29.7867 16.9514C29.561 16.7394 29.3011 16.6333 29.007 16.6333C28.6787 16.6333 28.3641 16.7606 28.0631 17.015C27.7622 17.2625 27.6117 17.5558 27.6117 17.8951V28.6788C27.6117 29.1064 27.2698 29.453 26.8481 29.453H20.6502Z" fill="#040B1D"/>
  <path d="M40.8239 29.453C40.4022 29.453 40.0603 29.1064 40.0603 28.6788V10.6848C40.0603 10.2573 40.4022 9.91065 40.8239 9.91065H47.3297C47.7514 9.91065 48.0933 10.2573 48.0933 10.6848V28.6788C48.0933 29.1064 47.7514 29.453 47.3297 29.453H40.8239Z" fill="#040B1D"/>
  <path d="M86.454 11.2881C86.454 10.8605 86.7959 10.5139 87.2176 10.5139H93.4156C93.8373 10.5139 94.1792 10.8605 94.1792 11.2881V21.7113C94.1792 22.199 94.2852 22.5843 94.4972 22.867C94.7093 23.1427 94.9692 23.2806 95.2769 23.2806C95.5916 23.2806 95.9062 23.1321 96.2208 22.8352C96.5422 22.5313 96.703 22.1566 96.703 21.7113V11.2881C96.703 10.8605 97.0449 10.5139 97.4666 10.5139H103.757C104.179 10.5139 104.521 10.8605 104.521 11.2881V22.0188C104.521 23.7931 104.079 25.3306 103.197 26.6313C102.322 27.932 101.173 28.9146 99.75 29.5791C98.3342 30.2436 96.8432 30.5758 95.2769 30.5758C94.1621 30.5758 93.0746 30.3956 92.0145 30.0351C90.9544 29.6675 90.0037 29.1232 89.1624 28.4021C88.328 27.674 87.668 26.7727 87.1824 25.6982C86.6968 24.6237 86.454 23.3972 86.454 22.0188V11.2881Z" fill="#040B1D"/>
  <path d="M125.666 16.4392C125.818 16.7943 125.671 17.2053 125.337 17.3934L117.008 22.0914C116.643 22.2977 116.181 22.167 115.974 21.7983L114.748 19.6191C114.537 19.2432 114.671 18.7646 115.045 18.5567L117.39 17.2546C117.833 17.0081 117.904 16.3913 117.42 16.2395C117.188 16.1665 116.936 16.13 116.669 16.13C115.823 16.13 114.977 16.5221 114.13 17.2761C113.955 17.4269 113.167 18.0302 112.934 18.6635C112.788 19.0255 112.817 19.3573 112.846 19.5684C112.875 19.8398 113.663 22.0416 114.335 22.8258C115.035 23.6402 115.823 24.0323 116.757 24.0323C118.113 24.0323 119.585 23.2616 121.112 21.7202C121.419 21.4102 121.917 21.3923 122.227 21.6994L125.468 24.9115C125.73 25.1714 125.776 25.5857 125.551 25.8798C124.931 26.6937 124.157 27.4251 123.264 28.0739C122.155 28.8581 120.988 29.4311 119.733 29.8534C118.478 30.2455 117.224 30.4566 115.969 30.4566C114.714 30.4566 113.547 30.2455 112.409 29.8534C111.27 29.4613 110.249 28.8581 109.315 28.0135C108.381 27.1992 107.652 26.1435 107.068 24.8768C106.514 23.61 106.105 22.1623 106.018 20.5034C106.018 20.4129 106.018 20.3827 106.018 20.2319C106.018 20.0811 106.018 19.9906 106.018 19.9906C106.018 17.7889 106.514 15.8887 107.477 14.3203C108.44 12.7519 109.695 11.5455 111.183 10.7613C112.7 9.9771 114.218 9.55484 115.764 9.55484C120.402 9.55484 123.703 11.8496 125.666 16.4392Z" fill="#040B1D"/>
</svg>

